<svg width="14" height="12" viewBox="0 0 14 12" fill="none" xmlns="http://www.w3.org/2000/svg">
<path d="M5.79954 11.8414C6.02448 12.0557 6.38053 12.047 6.5948 11.8221C6.80906 11.5971 6.80041 11.2411 6.57546 11.0268L1.8869 6.56083L12.9375 6.56083C13.2482 6.56083 13.5 6.30899 13.5 5.99833C13.5 5.68767 13.2482 5.43583 12.9375 5.43583L1.88683 5.43583L6.57546 0.9698C6.8004 0.755535 6.80906 0.399485 6.5948 0.17454C6.38053 -0.0504054 6.02448 -0.0590628 5.79954 0.155203L0.235339 5.45523C0.108644 5.57591 0.0336799 5.72984 0.010447 5.88987C0.00359201 5.92497 -3.24347e-09 5.96123 0 5.99833C3.24982e-09 6.0355 0.00360561 6.07184 0.0104871 6.10699C0.0337665 6.26692 0.108717 6.42075 0.235339 6.54136L5.79954 11.8414Z" fill="#242527"/>
</svg>
