<svg width="193" height="32" viewBox="0 0 193 32" fill="none" xmlns="http://www.w3.org/2000/svg">
<path d="M28.5543 20.4549C24.7902 23.1327 19.853 23.4302 15.8364 21.3334M3.44625 11.5453C7.21952 8.86096 12.1716 8.56858 16.1934 10.6821M20.4986 18.8325C24.3475 16.4068 26.5761 11.9656 26.135 7.34971M11.4428 13.205C7.63008 15.6389 5.42645 20.0582 5.86536 24.6505M20.7029 13.5161C20.5255 8.97143 17.7936 4.82254 13.5765 2.89638M11.3012 18.5676C11.5085 23.0795 14.2327 27.1894 18.424 29.1038M25.4284 6.57199C30.6354 11.779 30.6354 20.2212 25.4284 25.4281C20.2214 30.6351 11.7792 30.6351 6.57224 25.4281C1.36524 20.2212 1.36524 11.779 6.57224 6.57199C11.7792 1.365 20.2214 1.365 25.4284 6.57199ZM19.7716 12.2288C21.8544 14.3116 21.8544 17.6885 19.7716 19.7713C17.6888 21.8541 14.3119 21.8541 12.2291 19.7713C10.1463 17.6885 10.1463 14.3116 12.2291 12.2288C14.3119 10.146 17.6888 10.146 19.7716 12.2288Z" stroke="#AA70F5" stroke-width="2" stroke-linecap="round" stroke-linejoin="round"/>
<path d="M46.624 24.032C47.3333 24.032 47.912 23.9293 48.36 23.724C48.8267 23.5 49.1813 23.2107 49.424 22.856C49.6853 22.4827 49.8627 22.0627 49.956 21.596C50.0493 21.1107 50.096 20.616 50.096 20.112V19.608H53.792V20.112C53.792 22.4453 53.176 24.2467 51.944 25.516C50.7307 26.7667 48.9573 27.392 46.624 27.392C44.384 27.392 42.6107 26.7107 41.304 25.348C39.9973 23.9853 39.344 21.9973 39.344 19.384V15.016C39.344 13.7653 39.512 12.6453 39.848 11.656C40.184 10.648 40.6693 9.808 41.304 9.136C41.9387 8.44533 42.704 7.92267 43.6 7.568C44.496 7.19467 45.504 7.008 46.624 7.008C47.7813 7.008 48.808 7.176 49.704 7.512C50.6 7.848 51.3467 8.33333 51.944 8.968C52.56 9.60267 53.0173 10.368 53.316 11.264C53.6333 12.16 53.792 13.168 53.792 14.288V14.792H50.096V14.288C50.096 13.8213 50.04 13.3547 49.928 12.888C49.816 12.4213 49.6293 12.0013 49.368 11.628C49.1067 11.2547 48.752 10.956 48.304 10.732C47.856 10.4893 47.296 10.368 46.624 10.368C46.008 10.368 45.476 10.4893 45.028 10.732C44.58 10.956 44.2067 11.2733 43.908 11.684C43.6093 12.076 43.3853 12.5427 43.236 13.084C43.1053 13.6067 43.04 14.1573 43.04 14.736V19.664C43.04 20.2987 43.1053 20.8867 43.236 21.428C43.3667 21.9507 43.572 22.408 43.852 22.8C44.132 23.192 44.496 23.5 44.944 23.724C45.4107 23.9293 45.9707 24.032 46.624 24.032ZM57.5805 23.64H62.2845V16.472H57.9165V13.112H65.8125V23.64H69.8445V27H57.5805V23.64ZM66.6805 8.996C66.6805 9.36933 66.6059 9.724 66.4565 10.06C66.3259 10.3773 66.1392 10.6573 65.8965 10.9C65.6539 11.124 65.3645 11.3107 65.0285 11.46C64.7112 11.5907 64.3752 11.656 64.0205 11.656C63.6472 11.656 63.3019 11.5907 62.9845 11.46C62.6672 11.3107 62.3872 11.124 62.1445 10.9C61.9019 10.6573 61.7059 10.3773 61.5565 10.06C61.4259 9.724 61.3605 9.36933 61.3605 8.996C61.3605 8.62267 61.4259 8.27733 61.5565 7.96C61.7059 7.624 61.9019 7.344 62.1445 7.12C62.3872 6.87733 62.6672 6.69067 62.9845 6.56C63.3019 6.41067 63.6472 6.336 64.0205 6.336C64.3752 6.336 64.7112 6.41067 65.0285 6.56C65.3645 6.69067 65.6539 6.87733 65.8965 7.12C66.1392 7.344 66.3259 7.624 66.4565 7.96C66.6059 8.27733 66.6805 8.62267 66.6805 8.996ZM78.0011 27H74.4731V13.112H78.0011V15.184H78.5051C78.8224 14.4 79.3357 13.7933 80.0451 13.364C80.7544 12.9347 81.5851 12.72 82.5371 12.72C83.2091 12.72 83.8344 12.832 84.4131 13.056C85.0104 13.2613 85.5331 13.588 85.9811 14.036C86.4291 14.484 86.7744 15.0533 87.0171 15.744C87.2784 16.4347 87.4091 17.256 87.4091 18.208V27H83.8811V19.104C83.8811 18.1147 83.6384 17.34 83.1531 16.78C82.6864 16.2013 82.0051 15.912 81.1091 15.912C80.0637 15.912 79.2797 16.2667 78.7571 16.976C78.2531 17.6667 78.0011 18.6 78.0011 19.776V27ZM94.7256 21.204C94.7443 21.6147 94.8376 21.9973 95.0056 22.352C95.1923 22.688 95.4349 22.9867 95.7336 23.248C96.0509 23.4907 96.4056 23.6867 96.7976 23.836C97.2083 23.9667 97.6376 24.032 98.0856 24.032C98.9629 24.032 99.6349 23.8827 100.102 23.584C100.568 23.2667 100.904 22.8933 101.11 22.464L104.134 24.144C103.966 24.4987 103.732 24.872 103.434 25.264C103.135 25.6373 102.743 25.9827 102.258 26.3C101.791 26.6173 101.212 26.8787 100.522 27.084C99.8496 27.2893 99.0563 27.392 98.1416 27.392C97.0963 27.392 96.1443 27.224 95.2856 26.888C94.4269 26.552 93.6803 26.0667 93.0456 25.432C92.4296 24.7973 91.9443 24.0227 91.5896 23.108C91.2536 22.1933 91.0856 21.1573 91.0856 20V19.832C91.0856 18.768 91.2629 17.7973 91.6176 16.92C91.9909 16.0427 92.4949 15.296 93.1296 14.68C93.7643 14.064 94.5016 13.588 95.3416 13.252C96.2003 12.8973 97.1149 12.72 98.0856 12.72C99.2803 12.72 100.307 12.9347 101.166 13.364C102.024 13.7747 102.734 14.3067 103.294 14.96C103.854 15.5947 104.264 16.304 104.526 17.088C104.787 17.8533 104.918 18.6 104.918 19.328V21.204H94.7256ZM98.0576 15.912C97.1616 15.912 96.4336 16.1453 95.8736 16.612C95.3136 17.06 94.9496 17.5827 94.7816 18.18H101.334C101.222 17.5267 100.867 16.9853 100.27 16.556C99.6909 16.1267 98.9536 15.912 98.0576 15.912ZM122.818 27H116.378L115.482 12.104V9.416H114.81V12.104L113.914 27H107.474L106.802 7.4H110.162L110.61 22.296V24.816H111.282V22.296L112.178 7.4H118.114L119.01 22.296V24.816H119.682V22.296L120.13 7.4H123.49L122.818 27ZM139.515 20.224C139.515 21.3813 139.319 22.408 138.927 23.304C138.535 24.1813 138.003 24.928 137.331 25.544C136.659 26.1413 135.884 26.5987 135.007 26.916C134.148 27.2333 133.243 27.392 132.291 27.392C131.339 27.392 130.424 27.2333 129.547 26.916C128.688 26.5987 127.923 26.1413 127.251 25.544C126.579 24.928 126.047 24.1813 125.655 23.304C125.263 22.408 125.067 21.3813 125.067 20.224V19.888C125.067 18.7493 125.263 17.7413 125.655 16.864C126.047 15.968 126.579 15.212 127.251 14.596C127.923 13.98 128.688 13.5133 129.547 13.196C130.424 12.8787 131.339 12.72 132.291 12.72C133.243 12.72 134.148 12.8787 135.007 13.196C135.884 13.5133 136.659 13.98 137.331 14.596C138.003 15.212 138.535 15.968 138.927 16.864C139.319 17.7413 139.515 18.7493 139.515 19.888V20.224ZM132.291 24.032C132.795 24.032 133.271 23.948 133.719 23.78C134.167 23.612 134.559 23.3693 134.895 23.052C135.231 22.7347 135.492 22.352 135.679 21.904C135.884 21.4373 135.987 20.9147 135.987 20.336V19.776C135.987 19.1973 135.884 18.684 135.679 18.236C135.492 17.7693 135.231 17.3773 134.895 17.06C134.559 16.7427 134.167 16.5 133.719 16.332C133.271 16.164 132.795 16.08 132.291 16.08C131.787 16.08 131.311 16.164 130.863 16.332C130.415 16.5 130.023 16.7427 129.687 17.06C129.351 17.3773 129.08 17.7693 128.875 18.236C128.688 18.684 128.595 19.1973 128.595 19.776V20.336C128.595 20.9147 128.688 21.4373 128.875 21.904C129.08 22.352 129.351 22.7347 129.687 23.052C130.023 23.3693 130.415 23.612 130.863 23.78C131.311 23.948 131.787 24.032 132.291 24.032ZM142.379 13.112H148.259V15.128H148.763C149.025 14.3627 149.463 13.7747 150.079 13.364C150.714 12.9347 151.47 12.72 152.347 12.72C153.729 12.72 154.839 13.1587 155.679 14.036C156.519 14.8947 156.939 16.2107 156.939 17.984V18.6L153.299 18.936V18.544C153.299 17.7787 153.103 17.172 152.711 16.724C152.319 16.2573 151.731 16.024 150.947 16.024C150.163 16.024 149.547 16.2947 149.099 16.836C148.651 17.3773 148.427 18.152 148.427 19.16V23.64H151.619V27H142.043V23.64H144.899V16.472H142.379V13.112ZM160.112 23.64H164.984V10.76H160.28V7.4H168.512V23.64H173.048V27H160.112V23.64ZM187.308 24.984H186.804C186.655 25.3013 186.468 25.6093 186.244 25.908C186.039 26.188 185.759 26.44 185.404 26.664C185.068 26.888 184.658 27.0653 184.172 27.196C183.706 27.3267 183.136 27.392 182.464 27.392C181.606 27.392 180.803 27.2427 180.056 26.944C179.328 26.6267 178.684 26.1693 178.124 25.572C177.583 24.956 177.154 24.2093 176.836 23.332C176.538 22.4547 176.388 21.4467 176.388 20.308V19.804C176.388 18.684 176.547 17.6853 176.864 16.808C177.2 15.9307 177.648 15.1933 178.208 14.596C178.787 13.98 179.45 13.5133 180.196 13.196C180.962 12.8787 181.764 12.72 182.604 12.72C183.724 12.72 184.611 12.9347 185.264 13.364C185.918 13.7747 186.431 14.3627 186.804 15.128H187.308V7.4H190.836V27H187.308V24.984ZM183.612 24.032C184.714 24.032 185.6 23.6867 186.272 22.996C186.963 22.2867 187.308 21.3627 187.308 20.224V19.888C187.308 18.7493 186.963 17.8347 186.272 17.144C185.6 16.4347 184.714 16.08 183.612 16.08C182.511 16.08 181.615 16.4253 180.924 17.116C180.252 17.788 179.916 18.712 179.916 19.888V20.224C179.916 21.4 180.252 22.3333 180.924 23.024C181.615 23.696 182.511 24.032 183.612 24.032Z" fill="#AA70F5"/>
</svg>
